<svg xmlns="http://www.w3.org/2000/svg" width="26" height="26" viewBox="0 0 26 26">
  <g id="icon_contacts" transform="translate(-172 -465)">
    <rect id="Rectangle_1454" data-name="Rectangle 1454" width="26" height="26" transform="translate(172 465)" fill="none"/>
    <path id="Union_130" data-name="Union 130" d="M-249.979,1664.107a3.961,3.961,0,0,0-3.9-4.039,3.961,3.961,0,0,0-3.9,4.039h-1.464a3.961,3.961,0,0,0-3.9-4.039,3.962,3.962,0,0,0-3.9,4.039H-268a5.066,5.066,0,0,1,2.968-4.639,3.583,3.583,0,0,1-1.507-2.935A3.48,3.48,0,0,1-263.13,1653a3.48,3.48,0,0,1,3.409,3.533,3.583,3.583,0,0,1-1.507,2.935,5.029,5.029,0,0,1,2.726,3.07,5.029,5.029,0,0,1,2.726-3.07,3.583,3.583,0,0,1-1.507-2.935,3.48,3.48,0,0,1,3.408-3.533,3.48,3.48,0,0,1,3.409,3.533,3.583,3.583,0,0,1-1.507,2.935,5.066,5.066,0,0,1,2.968,4.639Zm-6.331-7.574a2.473,2.473,0,0,0,2.434,2.525,2.474,2.474,0,0,0,2.435-2.525,2.473,2.473,0,0,0-2.435-2.524A2.473,2.473,0,0,0-256.309,1656.534Zm-9.256,0a2.473,2.473,0,0,0,2.435,2.525,2.474,2.474,0,0,0,2.435-2.525,2.473,2.473,0,0,0-2.435-2.524A2.473,2.473,0,0,0-265.565,1656.534Z" transform="translate(443.5 -1180.471)" fill="rgba(255,255,255,0.5)"/>
  </g>
</svg>
