<svg xmlns="http://www.w3.org/2000/svg" width="124.623" height="28" viewBox="0 0 124.623 28">
  <g id="LGG_Logo" data-name="LGG Logo" transform="translate(-173 -274)">
    <path id="Path_1" data-name="Path 1" d="M33.43,90.386c-.082,0-2.44,0-2.52,0a6.839,6.839,0,0,1-6.8-7.038V68.734h3.521V83.345h0a4.852,4.852,0,0,0,.516,1.935A2.959,2.959,0,0,0,30.91,86.86c.079,0,2.437,0,2.52,0,0,0,1.457,1.253,1.463,1.76S33.43,90.386,33.43,90.386Z" transform="translate(148.889 205.266)" fill="#fff"/>
    <path id="Path_2" data-name="Path 2" d="M257.583,95.445a7.717,7.717,0,1,1-2.253-5.422A7.39,7.39,0,0,1,257.583,95.445Zm-2.485,0a5.192,5.192,0,1,0-5.211,5.2,5.232,5.232,0,0,0,5.211-5.2Z" transform="translate(7.519 192.936)" fill="#75cfec"/>
    <path id="Path_4" data-name="Path 4" d="M162.786,69h-2.733V83.162a4.36,4.36,0,0,1-8.721,0,4.34,4.34,0,0,1,7.43-3.068,4.568,4.568,0,0,1,.746.957V76.884a6.847,6.847,0,0,0-4.051-1.255,6.928,6.928,0,0,0-5.18,2.241,7.5,7.5,0,0,0-2.117,5.292,7.533,7.533,0,0,0,15.066,0V69Z" transform="translate(68.479 205.096)" fill="#fff"/>
    <path id="Path_5" data-name="Path 5" d="M208.753,90.023a7.681,7.681,0,0,0-13.1,5.422,7.609,7.609,0,0,0,2.163,5.392,7.039,7.039,0,0,0,5.271,2.268,6.957,6.957,0,0,0,4.867-1.857V97.865a5.433,5.433,0,0,1-.947,1.257,5.2,5.2,0,0,1-8.868-3.677,5.2,5.2,0,0,1,10.407,0c0,.155-.006,5.211,0,5.2a6.251,6.251,0,0,1-1.323,4.143,4.711,4.711,0,0,1-3.9,1.788A4.959,4.959,0,0,1,199,104.224l-2.093,1.366a7.623,7.623,0,0,0,2.791,2.529,7.475,7.475,0,0,0,3.634.945,7.767,7.767,0,0,0,7.7-7.66V95.445A7.376,7.376,0,0,0,208.753,90.023Z" transform="translate(37.691 192.936)" fill="#75cfec"/>
    <path id="Path_6" data-name="Path 6" d="M301.644,90.023a7.68,7.68,0,0,0-13.1,5.422,7.609,7.609,0,0,0,2.163,5.392,7.039,7.039,0,0,0,5.27,2.268,6.957,6.957,0,0,0,4.867-1.857V97.865a5.429,5.429,0,0,1-.947,1.257,5.2,5.2,0,0,1-8.869-3.677,5.2,5.2,0,0,1,10.407,0c0,.155-.006,5.211,0,5.2a6.251,6.251,0,0,1-1.322,4.143,4.712,4.712,0,0,1-3.9,1.788,4.958,4.958,0,0,1-4.331-2.355L289.8,105.59a7.626,7.626,0,0,0,2.791,2.529,7.476,7.476,0,0,0,3.634.945,7.768,7.768,0,0,0,7.7-7.66V95.445A7.376,7.376,0,0,0,301.644,90.023Z" transform="translate(-22.522 192.936)" fill="#75cfec"/>
    <path id="Path_7" data-name="Path 7" d="M114.075,90.072a7.533,7.533,0,0,0-12.859,5.313,7.478,7.478,0,0,0,2.115,5.277,7.183,7.183,0,0,0,9.223,1V97.52a4.636,4.636,0,0,1-.736.946,4.36,4.36,0,0,1-7.429-3.081,4.36,4.36,0,0,1,8.72,0v7.305h3.173V95.384A7.275,7.275,0,0,0,114.075,90.072Z" transform="translate(98.909 192.874)" fill="#fff"/>
    <path id="Path_8" data-name="Path 8" d="M66.265,95.428A4.219,4.219,0,0,1,65,98.492a4.1,4.1,0,0,1-3.058,1.252,3.978,3.978,0,0,1-3.625-1.984,3.8,3.8,0,0,1-.77-2.35,4.259,4.259,0,0,1,1.27-3.1,4.087,4.087,0,0,1,3.077-1.288,4.194,4.194,0,0,1,2.573.815l-6.327,4.324a3.147,3.147,0,0,0,.544,1.26,3.288,3.288,0,0,0,.976,1.086l8.907-5.981a.4.4,0,0,0,.09-.542,7.239,7.239,0,0,0-2.625-2.912,7.541,7.541,0,0,0-4.13-1.222,7.542,7.542,0,0,0-5.319,12.875,7.483,7.483,0,0,0,5.351,2.165,7.49,7.49,0,0,0,7.506-7.462H66.265Z" transform="translate(129.273 192.874)" fill="#fff"/>
    <path id="Path_3" data-name="Path 3" d="M350.029,95.445a7.717,7.717,0,1,1-2.253-5.422A7.391,7.391,0,0,1,350.029,95.445Zm-2.486,0a5.192,5.192,0,1,0-5.211,5.2,5.231,5.231,0,0,0,5.211-5.2Z" transform="translate(-52.406 192.936)" fill="#75cfec"/>
  </g>
</svg>
